<?xml version="1.0" encoding="UTF-8"?>
<svg id="Layer_2" data-name="Layer 2" xmlns="http://www.w3.org/2000/svg" viewBox="0 0 542.59 539.7">
  <defs>
    <style>
      .cls-1 {
        fill: #9b9b9b;
      }

      .cls-2 {
        fill: #f58634;
      }
    </style>
  </defs>
  <g id="Layer_1-2" data-name="Layer 1">
    <g>
      <path class="cls-1" d="M54.69,378.99c15.21,0,28.1,5.51,38.67,16.53,10.57,11.02,15.85,24.19,15.85,39.51s-5.29,28.35-15.85,39.43c-10.57,11.07-23.46,16.61-38.67,16.61s-28.13-5.54-38.76-16.61c-10.63-11.07-15.94-24.21-15.94-39.43s5.31-28.49,15.94-39.51c10.62-11.02,23.54-16.53,38.76-16.53ZM54.69,464.56c7.78,0,14.4-2.93,19.84-8.78,5.45-5.86,8.17-12.74,8.17-20.66s-2.73-14.97-8.17-20.83c-5.45-5.86-12.06-8.79-19.84-8.79s-14.57,2.93-20.02,8.79-8.17,12.8-8.17,20.83,2.72,14.81,8.17,20.66,12.12,8.78,20.02,8.78Z"/>
      <rect class="cls-1" x="115.93" y="381.67" width="26.51" height="106.04"/>
      <path class="cls-1" d="M178.85,431.5l6.88,19.63c2.35,6.71,6.15,10.07,11.41,10.07h16.94v26.51h-16.92c-7.82,0-15.17-2.69-22.03-8.06-6.87-5.37-11.64-11.87-14.32-19.48l-12.47-35.57,32.54-42.92h33.21l-35.23,49.83Z"/>
      <path class="cls-2" d="M269.62,459.35c1.01,1.01,2.24,1.51,3.69,1.51h50.5v26.68h-50.5c-8.72,0-16.22-3.13-22.48-9.4-6.27-6.26-9.4-13.76-9.4-22.48v-74.32h26.68v74.32c0,1.46.5,2.68,1.51,3.69Z"/>
      <path class="cls-2" d="M418.44,394.34c9.84,10.35,14.76,22.85,14.76,37.5v55.7h-26.51v-23.99h-47.82v23.99h-26.68v-55.7c0-14.65,4.95-27.15,14.85-37.5,9.9-10.34,21.78-15.52,35.65-15.52s25.89,5.18,35.74,15.52ZM406.69,437.04v-5.2c0-7.27-2.35-13.51-7.05-18.71s-10.35-7.8-16.95-7.8-12.22,2.6-16.86,7.8c-4.64,5.2-6.96,11.44-6.96,18.71v5.2h47.82Z"/>
      <path class="cls-2" d="M510.71,381.34c8.84,0,16.36,3.13,22.57,9.39,6.21,6.27,9.31,13.81,9.31,22.65s-2.01,15.55-6.04,21.14c4.03,5.59,6.04,11.8,6.04,18.62v2.52c0,8.72-3.11,16.22-9.31,22.48-6.21,6.27-13.73,9.4-22.57,9.4h-69.12v-106.2h69.12ZM516.08,455.77c0-5.32-1.79-7.99-5.37-7.99h-26.51v-26.51h26.51c1.45,0,2.71-.54,3.78-1.63,1.06-1.09,1.59-2.32,1.59-3.7,0-5.39-1.79-8.09-5.39-8.09h-42.6v53.18h42.6c1.46,0,2.72-.54,3.79-1.61,1.06-1.08,1.6-2.29,1.6-3.65Z"/>
    </g>
    <g>
      <path class="cls-1" d="M59.81,533.99l-2.11,5.38h-1.82l6.98-17.14h2.02l6.98,17.14h-1.85l-2.16-5.38h-8.04ZM63.84,523.91h-.05l-3.41,8.64h6.91l-3.46-8.64Z"/>
      <path class="cls-1" d="M93.46,523.55c.96.88,1.44,2.13,1.44,3.74s-.48,2.86-1.44,3.74-2.31,1.32-4.06,1.32h-5.3v7.01h-1.68v-17.14h6.98c1.74,0,3.1.44,4.06,1.32ZM92.14,530.02c.69-.6,1.03-1.51,1.03-2.72s-.34-2.12-1.03-2.72c-.69-.6-1.69-.9-3-.9h-5.04v7.25h5.04c1.31,0,2.31-.3,3-.9Z"/>
      <path class="cls-1" d="M112.18,532.21h-4.54v7.15h-1.68v-17.14h7.46c1.74,0,3.1.43,4.06,1.3s1.44,2.1,1.44,3.7c0,1.49-.42,2.66-1.26,3.5-.84.85-2.03,1.34-3.56,1.46l4.92,7.18h-1.97l-4.87-7.15ZM113.18,530.77c1.3,0,2.29-.3,2.98-.89.69-.59,1.03-1.48,1.03-2.66s-.34-2.07-1.03-2.66c-.69-.59-1.68-.89-2.98-.89h-5.54v7.1h5.54Z"/>
      <path class="cls-1" d="M140.93,522.96c1.17.71,2.08,1.74,2.74,3.08.66,1.34.98,2.93.98,4.75s-.33,3.41-.98,4.75c-.66,1.34-1.57,2.37-2.74,3.08-1.17.71-2.5,1.07-3.98,1.07s-2.82-.36-3.98-1.07c-1.17-.71-2.08-1.74-2.74-3.08-.66-1.34-.98-2.93-.98-4.75s.33-3.41.98-4.75c.66-1.34,1.57-2.37,2.74-3.08,1.17-.71,2.5-1.07,3.98-1.07s2.82.36,3.98,1.07ZM140.05,537.37c.9-.59,1.61-1.45,2.11-2.58s.76-2.46.76-4-.25-2.87-.76-4c-.5-1.13-1.21-1.99-2.11-2.58s-1.94-.89-3.11-.89-2.2.3-3.11.89c-.9.59-1.61,1.45-2.11,2.58-.5,1.13-.76,2.46-.76,4s.25,2.87.76,4,1.21,1.99,2.11,2.58c.9.59,1.94.89,3.11.89s2.2-.3,3.11-.89Z"/>
      <path class="cls-1" d="M161.81,539.36h-1.78l-6.67-17.14h1.87l5.71,15.19h.05l5.66-15.19h1.82l-6.67,17.14Z"/>
      <path class="cls-1" d="M189.86,529.93v1.44h-9.14v6.53h9.53v1.46h-11.21v-17.14h11.21v1.44h-9.53v6.26h9.14Z"/>
      <path class="cls-1" d="M223.23,524.29c-.84-.64-1.85-.96-3.04-.96-1.3,0-2.32.3-3.07.9-.75.6-1.13,1.36-1.13,2.29,0,.74.26,1.32.78,1.74s1.27.76,2.24,1l3.41.77c1.41.32,2.5.83,3.29,1.52.78.7,1.18,1.77,1.18,3.23,0,1.04-.27,1.93-.82,2.68-.54.74-1.29,1.3-2.23,1.68-.94.38-2.01.56-3.19.56-1.89,0-3.43-.47-4.63-1.42-1.2-.94-1.98-2.32-2.33-4.13l1.73-.22c.51,2.86,2.26,4.3,5.26,4.3,1.33,0,2.41-.3,3.24-.91.83-.61,1.25-1.44,1.25-2.5,0-.93-.29-1.64-.86-2.12-.58-.49-1.4-.86-2.47-1.12l-3.26-.77c-1.38-.32-2.44-.8-3.18-1.43-.74-.63-1.12-1.59-1.12-2.87,0-.9.25-1.7.74-2.4.5-.7,1.2-1.25,2.1-1.64.9-.39,1.94-.59,3.11-.59,1.66,0,3.04.44,4.14,1.33,1.1.89,1.81,2.13,2.15,3.73l-1.7.12c-.21-1.22-.73-2.14-1.57-2.78Z"/>
      <path class="cls-1" d="M248.85,529.93v1.44h-9.14v6.53h9.53v1.46h-11.21v-17.14h11.21v1.44h-9.53v6.26h9.14Z"/>
      <path class="cls-1" d="M272.87,536.93c-.55.9-1.32,1.59-2.29,2.06-.98.47-2.1.71-3.38.71s-2.41-.24-3.4-.71c-.98-.47-1.75-1.16-2.3-2.06-.55-.9-.83-1.99-.83-3.25v-11.45h1.68v11.14c0,1.65.42,2.88,1.27,3.68.85.81,2.04,1.21,3.58,1.21s2.72-.4,3.56-1.2,1.26-2.03,1.26-3.7v-11.14h1.68v11.45c0,1.26-.28,2.35-.83,3.25Z"/>
      <path class="cls-1" d="M311.85,536.83c-.61.86-1.4,1.55-2.38,2.08-.98.53-2.1.79-3.38.79-1.5,0-2.84-.36-4.01-1.07-1.17-.71-2.08-1.74-2.74-3.1-.66-1.35-.98-2.94-.98-4.76s.33-3.38.98-4.73c.66-1.34,1.57-2.37,2.74-3.08,1.17-.71,2.5-1.07,4.01-1.07,1.86,0,3.33.48,4.42,1.43s1.86,1.96,2.3,3.04l-1.66.38c-.42-.94-1.06-1.75-1.92-2.41-.86-.66-1.91-1-3.14-1s-2.23.3-3.13.89c-.9.59-1.61,1.45-2.11,2.57-.5,1.12-.76,2.45-.76,3.98s.25,2.89.76,4.02,1.21,1.99,2.11,2.58c.9.59,1.95.89,3.13.89,1.38,0,2.52-.42,3.44-1.26s1.55-1.9,1.88-3.18l1.7.26c-.24.98-.66,1.89-1.27,2.75Z"/>
      <path class="cls-1" d="M335.21,522.96c1.17.71,2.08,1.74,2.74,3.08.66,1.34.98,2.93.98,4.75s-.33,3.41-.98,4.75c-.66,1.34-1.57,2.37-2.74,3.08-1.17.71-2.5,1.07-3.98,1.07s-2.82-.36-3.98-1.07c-1.17-.71-2.08-1.74-2.74-3.08-.66-1.34-.98-2.93-.98-4.75s.33-3.41.98-4.75c.66-1.34,1.57-2.37,2.74-3.08,1.17-.71,2.5-1.07,3.98-1.07s2.82.36,3.98,1.07ZM334.33,537.37c.9-.59,1.61-1.45,2.11-2.58s.76-2.46.76-4-.25-2.87-.76-4c-.5-1.13-1.21-1.99-2.11-2.58s-1.94-.89-3.11-.89-2.21.3-3.11.89c-.9.59-1.61,1.45-2.11,2.58-.5,1.13-.76,2.46-.76,4s.25,2.87.76,4,1.21,1.99,2.11,2.58c.9.59,1.94.89,3.11.89s2.2-.3,3.11-.89Z"/>
      <path class="cls-1" d="M361.68,539.36l-9.84-14.71h-.05v14.71h-1.61v-17.14h1.85l9.77,14.54h.05v-14.54h1.61v17.14h-1.78Z"/>
      <path class="cls-1" d="M381.72,523.69v15.67h-1.68v-15.67h-5.83v-1.46h13.37v1.46h-5.86Z"/>
      <path class="cls-1" d="M409.15,529.93v1.44h-9.14v6.53h9.53v1.46h-11.21v-17.14h11.21v1.44h-9.53v6.26h9.14Z"/>
      <path class="cls-1" d="M433.16,536.93c-.55.9-1.32,1.59-2.29,2.06-.98.47-2.1.71-3.38.71s-2.41-.24-3.4-.71c-.98-.47-1.75-1.16-2.3-2.06-.55-.9-.83-1.99-.83-3.25v-11.45h1.68v11.14c0,1.65.42,2.88,1.27,3.68.85.81,2.04,1.21,3.58,1.21s2.72-.4,3.56-1.2,1.26-2.03,1.26-3.7v-11.14h1.68v11.45c0,1.26-.28,2.35-.83,3.25ZM426.84,520.91l1.68-3.26h1.97l-2.38,3.26h-1.27Z"/>
      <path class="cls-1" d="M456.31,523.2c1.2.65,2.13,1.61,2.8,2.89.66,1.28,1,2.85,1,4.7s-.33,3.42-1,4.7c-.66,1.28-1.6,2.24-2.8,2.89-1.2.65-2.6.97-4.2.97h-6.12v-17.14h6.12c1.6,0,3,.32,4.2.97ZM456.64,536.1c1.15-1.22,1.73-2.98,1.73-5.3s-.58-4.09-1.73-5.3c-1.15-1.22-2.74-1.82-4.78-1.82h-4.2v14.26h4.2c2.03,0,3.62-.61,4.78-1.82Z"/>
      <path class="cls-1" d="M482.3,522.96c1.17.71,2.08,1.74,2.74,3.08.66,1.34.98,2.93.98,4.75s-.33,3.41-.98,4.75c-.66,1.34-1.57,2.37-2.74,3.08-1.17.71-2.5,1.07-3.98,1.07s-2.82-.36-3.98-1.07c-1.17-.71-2.08-1.74-2.74-3.08-.66-1.34-.98-2.93-.98-4.75s.33-3.41.98-4.75c.66-1.34,1.57-2.37,2.74-3.08,1.17-.71,2.5-1.07,3.98-1.07s2.82.36,3.98,1.07ZM481.42,537.37c.9-.59,1.61-1.45,2.11-2.58s.76-2.46.76-4-.25-2.87-.76-4c-.5-1.13-1.21-1.99-2.11-2.58s-1.94-.89-3.11-.89-2.21.3-3.11.89c-.9.59-1.61,1.45-2.11,2.58-.5,1.13-.76,2.46-.76,4s.25,2.87.76,4,1.21,1.99,2.11,2.58c.9.59,1.94.89,3.11.89s2.2-.3,3.11-.89Z"/>
    </g>
    <g>
      <path class="cls-1" d="M385.74,102.77L297.16,14.18c-9.15-9.15-21.32-14.18-34.29-14.18s-25.15,5.04-34.29,14.18l-44.55,44.55,11.38,11.38,18.76,18.76,11.38,11.38,2.82-2.48c20.64-18.15,52.04-17.14,71.48,2.31,19.44,19.45,20.46,50.85,2.31,71.48l-2.48,2.82,11.38,11.38,18.76,18.76,11.38,11.38,44.55-44.55c9.15-9.15,14.18-21.33,14.18-34.29s-5.04-25.15-14.18-34.29Z"/>
      <path class="cls-1" d="M352.13,253.37h0s-30.14-30.14-30.14-30.14h0s-4.95-4.96-4.95-4.96l-2.82,2.48c-20.64,18.15-52.04,17.14-71.48-2.31-9.86-9.86-15.29-23-15.29-36.98,0-12.73,4.61-24.98,12.98-34.5l2.48-2.82-11.38-11.38h0s0,0,0,0l-18.76-18.76-11.38-11.38-44.55,44.55c-18.91,18.91-18.91,49.68,0,68.58l88.58,88.58c9.15,9.15,21.33,14.18,34.29,14.18s25.15-5.04,34.29-14.18l44.55-44.55-6.42-6.42ZM302.63,292.96c-6.11,6.11-14.25,9.48-22.92,9.48s-16.81-3.36-22.91-9.48l-88.58-88.58c-6.11-6.11-9.47-14.25-9.47-22.91s3.36-16.81,9.47-22.91l33.3-33.3,20.12,20.12c-16.51,26.51-13.09,61.65,9.71,84.46,13.31,13.31,30.83,20.02,48.38,20.02,12.52,0,25.05-3.43,36.08-10.31l20.12,20.12-33.3,33.3Z"/>
    </g>
  </g>
</svg>